# xmcd
#
# Track frame offsets:
#	150
#	13609
#	30710
#	50092
#	68615
#	82862
#	100540
#	115272
#	129650
#	146442
#	164465
#	179402
#	194925
#	210447
#
# Disc length: 3017 seconds
#
# Revision: 4
# Processed by: cddbd v1.5.2PL0 Copyright (c) Steve Scherf et al.
# Submitted via: audiograbber 1.83.01
#
DISCID=c00bc70e
DTITLE=Various Artist - Hot Hits Country Vol. 47
DYEAR=1995
DGENRE=Country
TTITLE0=Stacy Dean Campbell - Honey I Do
TTITLE1=Travis Tritt - Sometimes She Forgets
TTITLE2=Vince Gill - Go Rest High On That Mountain
TTITLE3=Collin Raye - One Boy, One Girl
TTITLE4=Terri Clark - Better Things To Do
TTITLE5=Blackhawk - I'm Not Strong Enough To Say No
TTITLE6=Martina McBride - Safe In The Arms Of Love
TTITLE7=Kenny Chesney - All I Need To Know
TTITLE8=Toby Keith - Big Ol' Truck
TTITLE9=Shania Twain - The Woman In Me (Needs The Man In You)
TTITLE10=David Lee Murphy - Dust On The Bottle
TTITLE11=Lonestar - Tequila Talkin'
TTITLE12=Billy Montana - Rain Through The Roof
TTITLE13=Emilio - It's Not The End Of The World
EXTD=
EXTT0=
EXTT1=
EXTT2=
EXTT3=
EXTT4=
EXTT5=
EXTT6=
EXTT7=
EXTT8=
EXTT9=
EXTT10=
EXTT11=
EXTT12=
EXTT13=
PLAYORDER=
